<mxfile host="65bd71144e">
    <diagram id="rFmOCMcaIkLP6CqxaiLA" name="Page-1">
        <mxGraphModel dx="527" dy="520" grid="1" gridSize="10" guides="1" tooltips="1" connect="1" arrows="1" fold="1" page="1" pageScale="1" pageWidth="850" pageHeight="1100" math="0" shadow="0">
            <root>
                <mxCell id="0"/>
                <mxCell id="1" parent="0"/>
                <mxCell id="2" value="OpenShift" style="swimlane;fillColor=#f8cecc;strokeColor=#b85450;" vertex="1" parent="1">
                    <mxGeometry x="20" y="10" width="500" height="480" as="geometry"/>
                </mxCell>
                <mxCell id="3" value="Order-solution" style="swimlane;" vertex="1" parent="2">
                    <mxGeometry x="10" y="30" width="480" height="180" as="geometry"/>
                </mxCell>
                <mxCell id="4" value="Order Management Producer" style="rounded=0;whiteSpace=wrap;html=1;fillColor=#d5e8d4;strokeColor=#82b366;" vertex="1" parent="3">
                    <mxGeometry x="10" y="50" width="120" height="60" as="geometry"/>
                </mxCell>
                <mxCell id="5" value="orders aggregates Kafka Streams" style="rounded=0;whiteSpace=wrap;html=1;fillColor=#d5e8d4;strokeColor=#82b366;" vertex="1" parent="3">
                    <mxGeometry x="190" y="50" width="120" height="60" as="geometry"/>
                </mxCell>
                <mxCell id="18" value="Kafka Connector&lt;br&gt;COS sink connector" style="rounded=0;whiteSpace=wrap;html=1;" vertex="1" parent="3">
                    <mxGeometry x="350" y="50" width="120" height="60" as="geometry"/>
                </mxCell>
                <mxCell id="10" value="event-streams cluster" style="swimlane;verticalAlign=middle;textDirection=ltr;horizontal=1;" vertex="1" parent="2">
                    <mxGeometry x="11" y="230" width="479" height="180" as="geometry">
                        <mxRectangle x="11" y="320" width="160" height="23" as="alternateBounds"/>
                    </mxGeometry>
                </mxCell>
                <mxCell id="12" value="Event Streams&lt;br&gt;Broker 0" style="rounded=0;whiteSpace=wrap;html=1;fillColor=#dae8fc;strokeColor=#6c8ebf;" vertex="1" parent="10">
                    <mxGeometry x="29" y="130" width="120" height="40" as="geometry"/>
                </mxCell>
                <mxCell id="13" value="Event Streams&lt;br&gt;Broker 1" style="rounded=0;whiteSpace=wrap;html=1;fillColor=#dae8fc;strokeColor=#6c8ebf;" vertex="1" parent="10">
                    <mxGeometry x="169" y="130" width="120" height="40" as="geometry"/>
                </mxCell>
                <mxCell id="14" value="Event Streams&lt;br&gt;Broker 2" style="rounded=0;whiteSpace=wrap;html=1;fillColor=#dae8fc;strokeColor=#6c8ebf;" vertex="1" parent="10">
                    <mxGeometry x="309" y="130" width="120" height="40" as="geometry"/>
                </mxCell>
                <mxCell id="19" value="orders" style="shape=cylinder3;whiteSpace=wrap;html=1;boundedLbl=1;backgroundOutline=1;size=4;rotation=90;align=center;horizontal=0;" vertex="1" parent="10">
                    <mxGeometry x="133" y="36" width="31" height="80" as="geometry"/>
                </mxCell>
                <mxCell id="20" value="orders-metrics" style="shape=cylinder3;whiteSpace=wrap;html=1;boundedLbl=1;backgroundOutline=1;size=4;rotation=90;align=center;horizontal=0;" vertex="1" parent="10">
                    <mxGeometry x="343" y="36" width="31" height="80" as="geometry"/>
                </mxCell>
                <mxCell id="21" style="edgeStyle=orthogonalEdgeStyle;html=1;entryX=0.5;entryY=1;entryDx=0;entryDy=0;entryPerimeter=0;" edge="1" parent="2" source="4" target="19">
                    <mxGeometry relative="1" as="geometry"/>
                </mxCell>
                <mxCell id="23" style="edgeStyle=orthogonalEdgeStyle;html=1;entryX=0.083;entryY=1;entryDx=0;entryDy=0;entryPerimeter=0;" edge="1" parent="2" source="19" target="5">
                    <mxGeometry relative="1" as="geometry"/>
                </mxCell>
                <mxCell id="24" style="edgeStyle=orthogonalEdgeStyle;html=1;entryX=0.5;entryY=1;entryDx=0;entryDy=0;entryPerimeter=0;exitX=0.683;exitY=1.017;exitDx=0;exitDy=0;exitPerimeter=0;" edge="1" parent="2" source="5" target="20">
                    <mxGeometry relative="1" as="geometry"/>
                </mxCell>
                <mxCell id="25" style="edgeStyle=orthogonalEdgeStyle;html=1;entryX=0.5;entryY=1;entryDx=0;entryDy=0;" edge="1" parent="2" source="19" target="18">
                    <mxGeometry relative="1" as="geometry">
                        <Array as="points">
                            <mxPoint x="360" y="270"/>
                            <mxPoint x="360" y="180"/>
                            <mxPoint x="420" y="180"/>
                        </Array>
                    </mxGeometry>
                </mxCell>
            </root>
        </mxGraphModel>
    </diagram>
</mxfile>